<?xml version="1.0" encoding="UTF-8"?>
<svg xmlns="http://www.w3.org/2000/svg" xmlns:xlink="http://www.w3.org/1999/xlink" width="375pt" height="374.999991pt" viewBox="0 0 375 374.999991" version="1.2">
<g id="surface1">
<rect x="0" y="0" width="375" height="374.999991" style="fill:rgb(100%,100%,100%);fill-opacity:1;stroke:none;"/>
<rect x="0" y="0" width="375" height="374.999991" style="fill:rgb(100%,100%,100%);fill-opacity:1;stroke:none;"/>
<rect x="0" y="0" width="375" height="374.999991" style="fill:rgb(100%,100%,100%);fill-opacity:1;stroke:none;"/>
<path style=" stroke:none;fill-rule:nonzero;fill:rgb(23.919678%,37.649536%,67.449951%);fill-opacity:1;" d="M 213.214844 8.410156 C 147.726562 0.824219 125.511719 30.1875 118.558594 45.019531 C 116.136719 50.207031 111.847656 54.175781 106.585938 56.410156 C 55.273438 78.242188 27.511719 147.507812 42.097656 153.738281 C 52.203125 158.058594 43.488281 189.46875 50.972656 218.183594 L 329.816406 218.183594 C 331.535156 207.792969 332.414062 169.425781 330.359375 143.417969 C 329.953125 138.339844 331.953125 133.421875 335.675781 129.957031 C 338.921875 126.921875 342.546875 123.0625 343.15625 114.21875 C 344.699219 92.046875 272.769531 16.941406 213.214844 8.410156 "/>
<path style=" stroke:none;fill-rule:nonzero;fill:rgb(97.648621%,49.01886%,54.899597%);fill-opacity:1;" d="M 50.972656 214.714844 C 38.011719 220.90625 34.019531 236.683594 39.378906 253.832031 C 44.679688 270.882812 66.367188 286.527344 82.546875 280.488281 L 76.296875 214.851562 C 71.859375 212.007812 61.402344 209.746094 50.972656 214.714844 "/>
<path style=" stroke:none;fill-rule:nonzero;fill:rgb(97.648621%,49.01886%,54.899597%);fill-opacity:1;" d="M 329.816406 214.714844 C 319.386719 209.746094 308.917969 212.007812 304.492188 214.851562 L 298.242188 280.488281 C 314.4375 286.527344 336.109375 270.882812 341.410156 253.832031 C 346.769531 236.683594 342.777344 220.90625 329.816406 214.714844 "/>
<path style=" stroke:none;fill-rule:nonzero;fill:rgb(96.469116%,36.859131%,48.239136%);fill-opacity:1;" d="M 80.570312 250.90625 C 78.960938 250.90625 77.363281 250.148438 76.351562 248.738281 C 71.046875 241.332031 59.925781 241.804688 59.820312 241.816406 C 56.882812 242.007812 54.488281 239.828125 54.3125 236.957031 C 54.125 234.085938 56.300781 231.617188 59.167969 231.441406 C 59.859375 231.390625 76.09375 230.523438 84.792969 242.671875 C 86.46875 245.015625 85.929688 248.265625 83.601562 249.929688 C 82.679688 250.59375 81.625 250.90625 80.570312 250.90625 "/>
<path style=" stroke:none;fill-rule:nonzero;fill:rgb(96.469116%,36.859131%,48.239136%);fill-opacity:1;" d="M 300.21875 250.90625 C 299.164062 250.90625 298.105469 250.59375 297.1875 249.929688 C 294.859375 248.265625 294.320312 245.015625 295.996094 242.671875 C 304.695312 230.523438 320.941406 231.402344 321.621094 231.441406 C 324.488281 231.617188 326.664062 234.085938 326.488281 236.957031 C 326.300781 239.8125 323.917969 241.96875 320.996094 241.816406 C 320.738281 241.816406 309.726562 241.34375 304.4375 248.738281 C 303.421875 250.148438 301.828125 250.90625 300.21875 250.90625 "/>
<path style=" stroke:none;fill-rule:nonzero;fill:rgb(100%,61.959839%,65.489197%);fill-opacity:1;" d="M 304.492188 214.851562 C 303.382812 169.925781 285.484375 116.398438 247.363281 87.875 C 220.304688 67.625 170.195312 59.917969 144.734375 81.535156 C 143.113281 82.929688 141.355469 84.164062 139.433594 85.125 C 95.113281 107.433594 77.378906 170.875 76.296875 214.851562 C 76.253906 227.582031 75.796875 251.597656 82.058594 278.480469 C 91.433594 318.75 122.074219 346.066406 153.125 360.355469 C 165.339844 366.382812 179.816406 368.929688 190.3125 368.929688 C 200.8125 368.929688 215.449219 366.382812 227.664062 360.355469 C 258.710938 346.066406 289.355469 318.75 298.730469 278.480469 C 304.992188 251.597656 304.53125 227.582031 304.492188 214.851562 "/>
<path style=" stroke:none;fill-rule:nonzero;fill:rgb(20.779419%,29.798889%,55.688477%);fill-opacity:1;" d="M 266.085938 65.554688 C 265.164062 65.554688 264.21875 65.308594 263.378906 64.792969 L 260.945312 63.292969 C 241.097656 50.9375 188.378906 18.121094 144.898438 59.890625 C 142.84375 61.882812 139.542969 61.816406 137.550781 59.742188 C 135.5625 57.671875 135.632812 54.367188 137.703125 52.386719 C 187.027344 5.023438 246.792969 42.230469 266.4375 54.460938 L 268.804688 55.921875 C 271.253906 57.425781 272.023438 60.621094 270.523438 63.074219 C 269.535156 64.671875 267.832031 65.554688 266.085938 65.554688 "/>
<path style=" stroke:none;fill-rule:nonzero;fill:rgb(20.779419%,29.798889%,55.688477%);fill-opacity:1;" d="M 275.21875 165.792969 C 263.449219 158.628906 244.183594 156.175781 228.882812 161.324219 C 225.703125 162.394531 223.917969 165.792969 224.621094 169.070312 C 225.351562 172.527344 228.585938 174.839844 232.074219 174.355469 C 240.234375 173.230469 254.804688 171.835938 265.164062 174.328125 C 272.917969 176.210938 276.070312 174.367188 277.300781 172.132812 C 278.546875 169.882812 277.421875 167.136719 275.21875 165.792969 "/>
<path style=" stroke:none;fill-rule:nonzero;fill:rgb(23.919678%,37.649536%,67.449951%);fill-opacity:1;" d="M 247.929688 226.445312 C 241.976562 226.445312 237.160156 221.609375 237.160156 215.648438 L 237.160156 209.039062 C 237.160156 203.082031 241.976562 198.246094 247.929688 198.246094 C 253.882812 198.246094 258.710938 203.082031 258.710938 209.039062 L 258.710938 215.648438 C 258.710938 221.609375 253.882812 226.445312 247.929688 226.445312 "/>
<path style=" stroke:none;fill-rule:nonzero;fill:rgb(20.779419%,29.798889%,55.688477%);fill-opacity:1;" d="M 267.113281 206.304688 C 265.882812 206.304688 264.652344 205.859375 263.664062 204.976562 C 257.171875 199.167969 245.117188 197.976562 237.324219 202.390625 C 234.847656 203.800781 231.667969 202.933594 230.25 200.425781 C 228.84375 197.921875 229.722656 194.75 232.210938 193.328125 C 243.898438 186.71875 260.769531 188.414062 270.589844 197.230469 C 272.726562 199.140625 272.902344 202.429688 270.996094 204.570312 C 269.96875 205.707031 268.546875 206.304688 267.113281 206.304688 "/>
<path style=" stroke:none;fill-rule:nonzero;fill:rgb(20.779419%,29.798889%,55.688477%);fill-opacity:1;" d="M 105.570312 165.792969 C 117.328125 158.628906 136.605469 156.175781 151.90625 161.324219 C 155.085938 162.394531 156.859375 165.792969 156.167969 169.070312 C 155.4375 172.527344 152.191406 174.839844 148.699219 174.355469 C 140.554688 173.230469 125.984375 171.835938 115.625 174.328125 C 107.871094 176.210938 104.71875 174.367188 103.488281 172.132812 C 102.242188 169.882812 103.367188 167.136719 105.570312 165.792969 "/>
<path style=" stroke:none;fill-rule:nonzero;fill:rgb(23.919678%,37.649536%,67.449951%);fill-opacity:1;" d="M 132.859375 226.445312 C 138.8125 226.445312 143.640625 221.609375 143.640625 215.648438 L 143.640625 209.039062 C 143.640625 203.082031 138.8125 198.246094 132.859375 198.246094 C 126.90625 198.246094 122.074219 203.082031 122.074219 209.039062 L 122.074219 215.648438 C 122.074219 221.609375 126.90625 226.445312 132.859375 226.445312 "/>
<path style=" stroke:none;fill-rule:nonzero;fill:rgb(20.779419%,29.798889%,55.688477%);fill-opacity:1;" d="M 113.675781 206.304688 C 112.242188 206.304688 110.820312 205.707031 109.792969 204.570312 C 107.886719 202.429688 108.0625 199.140625 110.199219 197.230469 C 120.035156 188.414062 136.890625 186.707031 148.578125 193.34375 C 151.066406 194.75 151.945312 197.921875 150.539062 200.425781 C 149.121094 202.933594 145.953125 203.800781 143.449219 202.390625 C 135.671875 197.988281 123.617188 199.167969 117.125 204.976562 C 116.136719 205.859375 114.90625 206.304688 113.675781 206.304688 "/>
<path style=" stroke:none;fill-rule:nonzero;fill:rgb(100%,100%,100%);fill-opacity:1;" d="M 275.636719 263.285156 C 274.417969 263.285156 273.1875 262.867188 272.199219 261.984375 C 270.0625 260.089844 269.847656 256.796875 271.742188 254.644531 C 271.957031 254.414062 292.492188 230.996094 299.675781 212.929688 C 300.730469 210.257812 303.75 208.945312 306.425781 210.015625 C 309.078125 211.085938 310.390625 214.105469 309.320312 216.773438 C 301.476562 236.535156 280.425781 260.523438 279.53125 261.523438 C 278.503906 262.691406 277.085938 263.285156 275.636719 263.285156 "/>
<path style=" stroke:none;fill-rule:nonzero;fill:rgb(100%,100%,100%);fill-opacity:1;" d="M 105.152344 263.285156 C 103.703125 263.285156 102.285156 262.691406 101.257812 261.523438 C 100.363281 260.523438 79.3125 236.535156 71.464844 216.773438 C 70.398438 214.105469 71.710938 211.085938 74.375 210.015625 C 77.027344 208.945312 80.058594 210.257812 81.113281 212.929688 C 88.296875 230.996094 108.832031 254.414062 109.046875 254.644531 C 110.941406 256.796875 110.738281 260.089844 108.589844 261.984375 C 107.601562 262.867188 106.371094 263.285156 105.152344 263.285156 "/>
<path style=" stroke:none;fill-rule:nonzero;fill:rgb(41.178894%,85.879517%,97.648621%);fill-opacity:1;" d="M 190.394531 374.0625 C 224.714844 374.0625 264.558594 347.300781 279.777344 321.6875 C 290.140625 304.242188 288 277.289062 275.636719 258.085938 C 260.566406 234.652344 215.691406 222.125 190.394531 222.125 C 165.097656 222.125 120.222656 234.652344 105.152344 258.085938 C 92.789062 277.289062 90.648438 304.242188 101.011719 321.6875 C 116.230469 347.300781 156.074219 374.0625 190.394531 374.0625 "/>
<path style=" stroke:none;fill-rule:nonzero;fill:rgb(21.179199%,72.158813%,87.838745%);fill-opacity:1;" d="M 259.457031 274.472656 C 258.226562 274.472656 256.996094 274.039062 256.007812 273.160156 C 237.378906 256.621094 208.902344 247.96875 190.394531 247.96875 C 171.886719 247.96875 143.410156 256.621094 124.78125 273.160156 C 122.628906 275.070312 119.34375 274.867188 117.449219 272.726562 C 115.542969 270.570312 115.730469 267.28125 117.882812 265.386719 C 139.40625 246.273438 170.5625 237.566406 190.394531 237.566406 C 210.226562 237.566406 241.382812 246.273438 262.90625 265.386719 C 265.058594 267.28125 265.246094 270.570312 263.351562 272.726562 C 262.324219 273.890625 260.890625 274.472656 259.457031 274.472656 "/>
</g>
</svg>
