<?xml version="1.0" encoding="UTF-8"?>
<svg xmlns="http://www.w3.org/2000/svg" xmlns:xlink="http://www.w3.org/1999/xlink" width="375pt" height="374.999991pt" viewBox="0 0 375 374.999991" version="1.2">
<g id="surface1">
<path style=" stroke:none;fill-rule:nonzero;fill:rgb(89.019775%,89.408875%,89.7995%);fill-opacity:1;" d="M 0 187.5 C 0 251.933594 32.523438 308.746094 82.03125 342.507812 L 82.03125 32.492188 C 32.523438 66.253906 0 123.066406 0 187.5 Z M 0 187.5 "/>
<path style=" stroke:none;fill-rule:nonzero;fill:rgb(10.5896%,36.859131%,12.548828%);fill-opacity:1;" d="M 375 187.5 C 375 83.945312 291.054688 0 187.5 0 C 148.378906 0 112.085938 12.007812 82.03125 32.492188 L 82.03125 342.496094 C 112.085938 362.992188 148.378906 375 187.5 375 C 291.054688 375 375 291.054688 375 187.5 Z M 375 187.5 "/>
<path style=" stroke:none;fill-rule:nonzero;fill:rgb(92.549133%,93.728638%,94.509888%);fill-opacity:1;" d="M 318.75 187.5 C 318.75 234.085938 280.960938 271.875 234.375 271.875 C 187.789062 271.875 150 234.085938 150 187.5 C 150 140.914062 187.789062 103.125 234.375 103.125 C 280.960938 103.125 318.75 140.914062 318.75 187.5 Z M 318.75 187.5 "/>
<path style=" stroke:none;fill-rule:nonzero;fill:rgb(10.5896%,36.859131%,12.548828%);fill-opacity:1;" d="M 317.363281 111.113281 C 288.140625 78.226562 237.789062 75.261719 204.863281 104.484375 C 171.976562 133.742188 169.011719 184.097656 198.273438 216.984375 C 227.492188 249.910156 277.882812 252.835938 310.773438 223.613281 C 343.660156 194.390625 346.621094 143.992188 317.363281 111.113281 Z M 317.363281 111.113281 "/>
<path style=" stroke:none;fill-rule:nonzero;fill:rgb(92.549133%,93.728638%,94.509888%);fill-opacity:1;" d="M 262.5 121.875 L 295.601562 167.363281 L 242.0625 150 L 295.566406 132.609375 L 262.539062 178.125 Z M 262.5 121.875 "/>
</g>
</svg>
